<?xml version="1.0" encoding="UTF-8"?>
<!DOCTYPE svg  PUBLIC '-//W3C//DTD SVG 1.1//EN'  'http://www.w3.org/Graphics/SVG/1.1/DTD/svg11.dtd'>
<svg version="1.1" xmlns="http://www.w3.org/2000/svg">
<defs>
<font id="GolosText-DemiBold" horiz-adv-x="570">
<font-face font-family="Golos Text DemiBold" font-weight="600" ascent="774" bbox="-220 -212 960 960" cap-height="700" descent="-226" panose-1="2 11 7 3 2 2 2 2 2 4" underline-position="-100" underline-thickness="50" unicode-range="U+0020-F6CE" units-per-em="1000" x-height="530"/>
<missing-glyph/>
<glyph glyph-name="space" horiz-adv-x="230" unicode=" "/>
<glyph d="M91 700h132v-470h-132v470zM155 -12q-35 0 -60 25t-25 60q0 37 25 61t60 24t60 -24t25 -61q0 -35 -25 -60t-60 -25z" glyph-name="exclam" horiz-adv-x="310" unicode="!"/>
<glyph d="M55 700h120v-240h-120v240zM255 700h120v-240h-120v240z" glyph-name="quotedbl" horiz-adv-x="430" unicode='"'/>
<glyph d="M124 186h-79v98h97l25 132h-83v98h101l35 186h120l-35 -186h130l35 186h120l-35 -186h80v-98h-98l-25 -132h84v-98h-102l-34 -186h-120l34 186h-130l-34 -186h-120zM392 284l25 132h-130l-25 -132h130z" glyph-name="numbersign" horiz-adv-x="680" unicode="#"/>
<glyph d="M270 -8q-110 12 -165.5 66t-59.5 137h150q4 -20 12 -35t24 -25t40 -15.5t59 -5.5q72 0 103.5 19.5t31.5 55.5q0 44 -41.5 66.5t-132.5 40.5q-54 10 -96 26.5t-71 42t-44 61.5t-15 86q0 79 54.5 130.5t150.5 65.5v92h120v-92q100 -12 149 -63.5t56 -129.5h-150 q-7 36 -32 53.5t-83 17.5q-59 0 -87 -19t-28 -51q0 -38 38.5 -60.5t121.5 -38.5q57 -11 101.5 -27t75 -41t47 -61.5t16.5 -87.5q0 -86 -58.5 -141t-166.5 -67v-112h-120v112z" glyph-name="dollar" horiz-adv-x="660" unicode="$"/>
<glyph d="M590 700h140l-480 -700h-140zM190 368q-39 0 -70 12t-53.5 34t-34.5 52.5t-12 68.5v10q0 37 12 68t34.5 53t53.5 34t70 12t70 -12t53.5 -34t34.5 -53t12 -68v-10q0 -38 -12 -68.5t-34.5 -52.5t-53.5 -34t-70 -12zM190 472q20 0 32 14.5t12 48.5v10q0 34 -12 48.5 t-32 14.5t-32 -14.5t-12 -48.5v-10q0 -34 12 -48.5t32 -14.5zM650 -11q-39 0 -70 12t-53.5 34t-34.5 52.5t-12 68.5v10q0 37 12 68t34.5 53t53.5 34t70 12t70 -12t53.5 -34t34.5 -53t12 -68v-10q0 -38 -12 -68.5t-34.5 -52.5t-53.5 -34t-70 -12zM650 93q20 0 32 14.5 t12 48.5v10q0 34 -12 48.5t-32 14.5t-32 -14.5t-12 -48.5v-10q0 -34 12 -48.5t32 -14.5z" glyph-name="percent" horiz-adv-x="840" unicode="%"/>
<glyph d="M295 -12q-62 0 -108 15.5t-76.5 42.5t-45.5 64t-15 80q0 27 5 51t18.5 48t37.5 50t61 57q-31 35 -49 72t-18 92q0 27 10.5 54t32 49t55.5 35.5t82 13.5q51 0 85.5 -15t55.5 -37.5t30 -49.5t9 -50q0 -20 -5 -39t-18 -39.5t-36 -44t-58 -52.5l129 -145q14 47 14 100h134 q0 -63 -13.5 -114.5t-38.5 -93.5l117 -132h-158l-41 44q-80 -56 -196 -56zM295 100q33 0 61.5 9.5t51.5 26.5l-156 172q-41 -35 -54.5 -61t-13.5 -57q0 -39 29.5 -64.5t81.5 -25.5zM234 560q0 -20 9 -40.5t29 -46.5q20 16 32.5 28.5t19.5 22t9.5 18.5t2.5 18q0 20 -14 32.5 t-37 12.5t-37 -13t-14 -32z" glyph-name="ampersand" horiz-adv-x="700" unicode="&amp;"/>
<glyph d="M55 700h120v-240h-120v240z" glyph-name="quotesingle" horiz-adv-x="230" unicode="'"/>
<glyph d="M70 260q0 106 25 187t55 138q35 66 80 115h140q-48 -49 -86 -115q-16 -28 -31.5 -62.5t-27.5 -75.5t-19.5 -88t-7.5 -99v-20q0 -53 7.5 -99.5t19.5 -87.5t27.5 -75.5t31.5 -62.5q38 -66 86 -115h-143q-45 49 -79 115q-15 28 -29 62.5t-25 75.5t-17.5 87.5t-6.5 99.5v20z " glyph-name="parenleft" horiz-adv-x="380" unicode="("/>
<glyph d="M310.009 240.031q0 -105.986 -24.9971 -186.977t-54.9932 -137.983q-34.9961 -65.9922 -79.9902 -114.986h-139.983q47.9941 48.9941 85.9893 114.986q15.998 27.9971 31.4971 62.4922q15.498 34.4961 27.4961 75.4912q11.999 40.9951 19.498 87.9893t7.49902 98.9873 v19.998q0 52.9932 -7.49902 99.4883q-7.49902 46.4941 -19.498 87.4893q-11.998 40.9941 -27.4961 75.4902q-15.499 34.4961 -31.4971 62.4922q-37.9951 65.9922 -85.9893 114.986h142.982q44.9951 -48.9941 78.9902 -114.986q14.999 -27.9961 28.9971 -62.4922 t24.9971 -75.4902q10.998 -40.9951 17.498 -87.4893q6.49902 -46.4951 6.49902 -99.4883v-19.998z" glyph-name="parenright" horiz-adv-x="380" unicode=")"/>
<glyph d="M188 461l-92 -68l-51 89l107 43l-107 43l51 89l92 -68l-10 111h94l-10 -111l93 68l50 -89l-107 -43l107 -43l-51 -89l-92 68l10 -111h-94z" glyph-name="asterisk" horiz-adv-x="450" unicode="*"/>
<glyph d="M219 298h-179v124h179v183h132v-183h179v-124h-179v-183h-132v183z" glyph-name="plus" unicode="+"/>
<glyph d="M85 0v130h140v-130l-112 -160h-68z" glyph-name="comma" horiz-adv-x="310" unicode=","/>
<glyph d="M30 342h320v-124h-320v124z" glyph-name="hyphen" horiz-adv-x="380" unicode="-"/>
<glyph d="M155 -12q-35 0 -60 25t-25 60q0 37 25 61t60 24t60 -24t25 -61q0 -35 -25 -60t-60 -25z" glyph-name="period" horiz-adv-x="310" unicode="."/>
<glyph d="M340 700h120l-320 -900h-120z" glyph-name="slash" horiz-adv-x="480" unicode="/"/>
<glyph d="M320 -12q-57 0 -106.5 18.5t-85.5 61t-57 112t-21 170.5v20q0 94 21 159t57 105.5t85.5 59t106.5 18.5t106.5 -18.5t85.5 -59t57 -105.5t21 -159v-20q0 -101 -21 -170.5t-57 -112t-85.5 -61t-106.5 -18.5zM320 114q25 0 47 10t38.5 36.5t25.5 72.5t9 117v20 q0 64 -9 105.5t-25.5 66t-38.5 34.5t-47 10q-26 0 -47.5 -10t-38 -34.5t-25.5 -66t-9 -105.5v-20q0 -71 9 -117t25.5 -72.5t38 -36.5t47.5 -10z" glyph-name="zero" horiz-adv-x="640" unicode="0"/>
<glyph d="M45 124h160v424l-160 -114v146l169 120h141v-576h130v-124h-440v124z" glyph-name="one" horiz-adv-x="505" unicode="1"/>
<glyph d="M30 109l245 211q34 30 58 52.5t39 41.5t21.5 37t6.5 39q0 43 -24 69.5t-71 26.5q-54 0 -84.5 -29.5t-30.5 -101.5h-150q0 119 67.5 188t197.5 69q61 0 106.5 -16.5t76.5 -46t46.5 -70.5t15.5 -89q0 -36 -13 -68.5t-35.5 -62.5t-52.5 -58.5t-64 -56.5l-144 -120h319v-124 h-530v109z" glyph-name="two" horiz-adv-x="600" unicode="2"/>
<glyph d="M295 -12q-128 0 -194 60.5t-66 166.5h150q0 -51 26.5 -76t83.5 -25q55 0 82.5 24.5t27.5 69.5q0 94 -110 94h-65v116h65q48 0 74 20t26 62q0 38 -25 62t-75 24q-51 0 -75.5 -23.5t-24.5 -67.5h-150q0 103 62.5 160t187.5 57q63 0 110 -14.5t78 -40t46.5 -60.5t15.5 -76 q0 -58 -32.5 -98.5t-86.5 -57.5q62 -17 95.5 -59t33.5 -111q0 -45 -18 -83t-51.5 -65.5t-82 -43t-108.5 -15.5z" glyph-name="three" horiz-adv-x="605" unicode="3"/>
<glyph d="M350 148h-330v104l330 448h150v-428h80v-124h-80v-148h-150v148zM350 272v261l-190 -261h190z" glyph-name="four" horiz-adv-x="628" unicode="4"/>
<glyph d="M300 -12q-67 0 -113.5 17t-76.5 45.5t-44.5 66t-15.5 78.5h150q3 -36 27.5 -58.5t72.5 -22.5q110 0 110 124q0 33 -9 56t-24 37t-35 20.5t-42 6.5q-35 0 -58 -13t-37 -35h-140v390h456v-124h-306v-128q21 19 51.5 27.5t68.5 8.5q51 0 92.5 -15.5t71 -46.5t45.5 -77 t16 -106q0 -57 -18.5 -103.5t-52.5 -79.5t-82 -50.5t-107 -17.5z" glyph-name="five" horiz-adv-x="600" unicode="5"/>
<glyph d="M325 -12q-66 0 -117 19t-86 59.5t-53.5 103.5t-18.5 150v20q0 100 21 170.5t59 115.5t90.5 65.5t114.5 20.5q97 0 157 -41t73 -136h-140q-20 51 -95 51q-29 0 -53.5 -8.5t-43 -31t-29.5 -61.5t-14 -100q13 20 32 33.5t41.5 22t47 12.5t49.5 4q106 0 163 -57.5t57 -162.5 v-11q0 -53 -19 -97t-52.5 -75.5t-80.5 -48.5t-103 -17zM315 114q54 0 84.5 30.5t30.5 78.5v10q0 48 -30.5 78t-84.5 30t-84.5 -30t-30.5 -78v-10q0 -48 30.5 -78.5t84.5 -30.5z" glyph-name="six" horiz-adv-x="625" unicode="6"/>
<glyph d="M356 576h-336v124h490v-109l-230 -591h-160z" glyph-name="seven" horiz-adv-x="540" unicode="7"/>
<glyph d="M315 -12q-63 0 -113.5 14.5t-85 41t-53 64t-18.5 83.5q0 59 36 105.5t107 65.5q-53 17 -88 59t-35 100q0 42 16.5 77t48.5 60.5t78.5 39.5t106.5 14t106.5 -14t79 -39.5t49 -60.5t16.5 -77q0 -58 -35 -98.5t-89 -60.5q143 -44 143 -171q0 -46 -18.5 -83.5t-53 -64 t-84.5 -41t-114 -14.5zM315 114q62 0 91 24t29 65q0 45 -33.5 71.5t-86.5 34.5q-53 -8 -86.5 -34.5t-33.5 -71.5q0 -41 30 -65t90 -24zM315 411q45 8 73 31.5t28 65.5q0 39 -26.5 58.5t-74.5 19.5q-47 0 -73.5 -19.5t-26.5 -58.5q0 -42 27.5 -65.5t72.5 -31.5z" glyph-name="eight" horiz-adv-x="630" unicode="8"/>
<glyph d="M295 -12q-100 0 -161 43t-74 134h140q10 -26 32.5 -38.5t67.5 -12.5q27 0 50.5 8.5t41.5 31t29 61.5t14 100q-13 -20 -32 -33.5t-41.5 -22t-47 -12.5t-49.5 -4q-106 0 -163 57.5t-57 162.5v11q0 53 19 97t52.5 75.5t80.5 48.5t103 17q133 0 204 -78t71 -254v-19 q0 -101 -21 -171.5t-58.5 -115.5t-89 -65.5t-111.5 -20.5zM310 359q54 0 84.5 30t30.5 78v10q0 47 -31.5 78t-83.5 31q-54 0 -84.5 -30.5t-30.5 -78.5v-10q0 -48 30.5 -78t84.5 -30z" glyph-name="nine" horiz-adv-x="625" unicode="9"/>
<glyph d="M155 -12q-35 0 -60 25t-25 60q0 37 25 61t60 24t60 -24t25 -61q0 -35 -25 -60t-60 -25zM155 372q-35 0 -60 25t-25 60q0 37 25 61t60 24t60 -24t25 -61q0 -35 -25 -60t-60 -25z" glyph-name="colon" horiz-adv-x="310" unicode=":"/>
<glyph d="M85 0v130h140v-130l-112 -160h-68zM155 372q-35 0 -60 25t-25 60q0 37 25 61t60 24t60 -24t25 -61q0 -35 -25 -60t-60 -25z" glyph-name="semicolon" horiz-adv-x="310" unicode=";"/>
<glyph d="M40 305v110l490 215v-143l-315 -125l315 -125v-147z" glyph-name="less" unicode="&lt;"/>
<glyph d="M40 302h490v-124h-490v124zM40 542h490v-124h-490v124z" glyph-name="equal" unicode="="/>
<glyph d="M530 415v-110l-490 -215v143l315 125l-315 125v147z" glyph-name="greater" unicode="&gt;"/>
<glyph d="M199 270q0 38 20 68.5t65 68.5q36 31 56.5 54t20.5 54q0 38 -24.5 61.5t-71.5 23.5q-43 0 -69.5 -23.5t-26.5 -66.5h-134q0 41 17.5 77.5t48 64.5t72.5 44t92 16q54 0 96.5 -14.5t72.5 -40.5t45.5 -61t15.5 -76q0 -27 -5 -49t-16.5 -42t-30.5 -40.5t-46 -44.5 q-23 -20 -36 -33.5t-19.5 -24t-8.5 -19t-2 -17.5v-20h-132v40zM265 -12q-35 0 -60 25t-25 60q0 37 25 61t60 24t60 -24t25 -61q0 -35 -25 -60t-60 -25z" glyph-name="question" horiz-adv-x="530" unicode="?"/>
<glyph d="M510 -212q-102 0 -187 32t-145.5 92.5t-94 147.5t-33.5 196q0 105 34 189t94 143.5t141.5 91.5t175.5 32q102 0 184.5 -29t140 -83t89 -132t31.5 -177q0 -72 -16.5 -125t-45.5 -87.5t-68.5 -51.5t-85.5 -17q-45 0 -79 18t-48 72q-20 -43 -53.5 -67t-88.5 -24 q-84 0 -134.5 57t-50.5 171v33q0 115 48.5 170t129.5 55q56 0 85.5 -21.5t42.5 -49.5v62h107v-281q0 -51 11.5 -70t41.5 -19q22 0 40 8.5t31 29t20 54t7 83.5q0 85 -26.5 146.5t-72 101.5t-107.5 59t-133 19q-72 0 -134 -23.5t-107.5 -69.5t-71 -113t-25.5 -155 q0 -90 25.5 -160t72 -117t111.5 -71.5t144 -24.5q78 0 133 16.5t92 39.5v-104q-39 -20 -92.5 -33.5t-132.5 -13.5zM478 116q43 0 68.5 28t25.5 78v62q0 51 -25 78t-70 27q-41 0 -64 -28.5t-23 -94.5v-28q0 -65 23.5 -93.5t64.5 -28.5z" glyph-name="at" horiz-adv-x="990" unicode="@"/>
<glyph d="M468 143h-259l-53 -143h-146l260 700h150l260 -700h-158zM255 267h168l-84 243z" glyph-name="A" horiz-adv-x="690" unicode="A"/>
<glyph d="M80 700h300q118 0 174 -49.5t56 -137.5q0 -54 -26.5 -92.5t-72.5 -55.5q60 -14 94.5 -56.5t34.5 -110.5q0 -45 -14 -81.5t-43.5 -62.5t-76.5 -40t-113 -14h-313v700zM366 114q70 0 97 24t27 71t-27 73.5t-98 26.5h-135v-195h136zM350 411q61 0 85.5 24t24.5 65 q0 42 -24 64t-85 22h-121v-175h120z" glyph-name="B" horiz-adv-x="680" unicode="B"/>
<glyph d="M365 -12q-69 0 -126.5 20t-99.5 62.5t-65.5 110.5t-23.5 164v20q0 92 24.5 157.5t67 107.5t100 62t123.5 20q59 0 111 -14t91.5 -43.5t64 -75.5t28.5 -109h-156q-11 60 -48 88t-91 28q-31 0 -59.5 -11t-50.5 -37t-35.5 -68t-13.5 -105v-20q0 -66 14 -110.5t36.5 -71 t51 -38t57.5 -11.5q57 0 94 29.5t45 86.5h156q-5 -66 -29 -112t-63 -75t-91 -42t-112 -13z" glyph-name="C" horiz-adv-x="700" unicode="C"/>
<glyph d="M80 700h245q79 0 141 -21.5t105 -63.5t66 -105t23 -145v-20q0 -84 -23.5 -148.5t-68 -108t-108.5 -66t-145 -22.5h-235v700zM305 124q40 0 76 11.5t63.5 37.5t43.5 68t16 104v20q0 58 -15 98.5t-40.5 65.5t-60 36t-73.5 11h-85v-452h75z" glyph-name="D" horiz-adv-x="710" unicode="D"/>
<glyph d="M80 700h490v-124h-339v-156h309v-120h-309v-176h339v-124h-490v700z" glyph-name="E" horiz-adv-x="620" unicode="E"/>
<glyph d="M80 700h480v-124h-330v-176h300v-120h-300v-280h-150v700z" glyph-name="F" horiz-adv-x="595" unicode="F"/>
<glyph d="M375 -12q-70 0 -129.5 20t-103 63t-68 111t-24.5 163v20q0 91 26 156.5t70 108t102 62.5t122 20q120 0 197.5 -57.5t97.5 -174.5h-156q-11 32 -26 52.5t-33.5 32t-39 16t-40.5 4.5q-33 0 -63 -11.5t-52.5 -37.5t-35.5 -68t-13 -103v-20q0 -65 14.5 -109t38 -71t54 -38.5 t62.5 -11.5t60.5 8.5t50 26t35 45t16.5 66.5h-142v104h285v-40q0 -87 -22 -150.5t-61.5 -105t-96 -61.5t-125.5 -20z" glyph-name="G" horiz-adv-x="725" unicode="G"/>
<glyph d="M80 700h150v-278h300v278h150v-700h-150v298h-300v-298h-150v700z" glyph-name="H" horiz-adv-x="760" unicode="H"/>
<glyph d="M90 700h150v-700h-150v700z" glyph-name="I" horiz-adv-x="330" unicode="I"/>
<glyph d="M255 -12q-112 0 -169.5 60t-60.5 172h142q4 -105 88 -105q47 0 68.5 30t21.5 105v450h150v-450q0 -71 -16.5 -120.5t-47.5 -81t-75.5 -46t-100.5 -14.5z" glyph-name="J" horiz-adv-x="575" unicode="J"/>
<glyph d="M80 700h150v-295l256 295h174l-261 -287l281 -413h-176l-206 314l-68 -74v-240h-150v700z" glyph-name="K" horiz-adv-x="700" unicode="K"/>
<glyph d="M80 700h150v-576h320v-124h-470v700z" glyph-name="L" unicode="L"/>
<glyph d="M80 700h150l213 -394l212 394h145v-700h-150v445l-165 -305h-90l-165 305v-445h-150v700z" glyph-name="M" horiz-adv-x="880" unicode="M"/>
<glyph d="M80 700h142l308 -450v450h150v-700h-142l-308 450v-450h-150v700z" glyph-name="N" horiz-adv-x="760" unicode="N"/>
<glyph d="M380 -12q-66 0 -125.5 20t-105 63t-72.5 110.5t-27 163.5v20q0 92 27 157.5t72.5 107.5t105 62t125.5 20t125.5 -20t105 -62t72.5 -107.5t27 -157.5v-20q0 -96 -27 -163.5t-72.5 -110.5t-105 -63t-125.5 -20zM380 114q34 0 65.5 11.5t55.5 38.5t38.5 71t14.5 110v20 q0 62 -14.5 104t-38.5 68t-55.5 37.5t-65.5 11.5t-65.5 -11.5t-55.5 -37.5t-38.5 -68t-14.5 -104v-20q0 -66 14.5 -110t38.5 -71t55.5 -38.5t65.5 -11.5z" glyph-name="O" horiz-adv-x="760" unicode="O"/>
<glyph d="M80 700h270q142 0 211 -62.5t69 -167.5t-69 -167.5t-211 -62.5h-120v-240h-150v700zM335 364q80 0 112.5 27t32.5 79q0 51 -32.5 78.5t-112.5 27.5h-105v-212h105z" glyph-name="P" horiz-adv-x="665" unicode="P"/>
<glyph d="M380 -12q-66 0 -125.5 20t-105 63t-72.5 110.5t-27 163.5v20q0 92 27 157.5t72.5 107.5t105 62t125.5 20t125.5 -20t105 -62t72.5 -107.5t27 -157.5v-20q0 -79 -19 -138.5t-51 -102.5l60 -59l-75 -75l-64 63q-40 -23 -86 -34t-95 -11zM380 114q44 0 81 19l-101 102l75 75 l96 -97q11 26 17 58t6 74v20q0 62 -14.5 104t-38.5 68t-55.5 37.5t-65.5 11.5t-65.5 -11.5t-55.5 -37.5t-38.5 -68t-14.5 -104v-20q0 -66 14.5 -110t38.5 -71t55.5 -38.5t65.5 -11.5z" glyph-name="Q" horiz-adv-x="760" unicode="Q"/>
<glyph d="M80 700h285q66 0 115.5 -16t82.5 -45.5t50 -71t17 -92.5q0 -73 -37.5 -126.5t-112.5 -76.5l170 -272h-174l-147 256h-99v-256h-150v700zM335 374q42 0 69.5 6.5t44.5 19t24 31.5t7 44t-7 44t-24 31.5t-44.5 19t-69.5 6.5h-105v-202h105z" glyph-name="R" horiz-adv-x="690" unicode="R"/>
<glyph d="M330 -12q-139 0 -210 57t-75 150h150q4 -20 12 -35t24 -25t40 -15.5t59 -5.5q72 0 103.5 19.5t31.5 55.5q0 44 -41.5 66.5t-132.5 40.5q-54 10 -96 26.5t-71 42t-44 61.5t-15 86q0 45 18.5 82t53 63.5t83.5 40.5t110 14q66 0 114 -14t80.5 -40t49.5 -62t21 -81h-150 q-7 36 -32 53.5t-83 17.5q-59 0 -87 -19t-28 -51q0 -38 38.5 -60.5t121.5 -38.5q57 -11 101.5 -27t75 -41t47 -61.5t16.5 -87.5q0 -97 -74.5 -154.5t-210.5 -57.5z" glyph-name="S" horiz-adv-x="660" unicode="S"/>
<glyph d="M245 576h-225v124h600v-124h-225v-576h-150v576z" glyph-name="T" horiz-adv-x="640" unicode="T"/>
<glyph d="M365 -12q-68 0 -122.5 18t-92.5 54.5t-59 91.5t-21 128v420h150v-406q0 -90 35 -135t110 -45t110 45t35 134v407h150v-420q0 -73 -20.5 -128t-59 -91.5t-93 -54.5t-122.5 -18z" glyph-name="U" horiz-adv-x="730" unicode="U"/>
<glyph d="M10 700h162l184 -520l174 520h150l-255 -700h-150z" glyph-name="V" horiz-adv-x="690" unicode="V"/>
<glyph d="M20 700h156l109 -494l135 494h140l138 -496l118 496h144l-180 -700h-150l-145 500l-135 -500h-150z" glyph-name="W" horiz-adv-x="980" unicode="W"/>
<glyph d="M255 365l-225 335h168l154 -229l155 229h163l-223 -332l233 -368h-169l-162 262l-163 -262h-166z" glyph-name="X" horiz-adv-x="700" unicode="X"/>
<glyph d="M275 267l-265 433h176l167 -281l157 281h160l-245 -433v-267h-150v267z" glyph-name="Y" horiz-adv-x="680" unicode="Y"/>
<glyph d="M35 109l360 467h-350v124h530v-109l-360 -467h370v-124h-550v109z" glyph-name="Z" horiz-adv-x="620" unicode="Z"/>
<glyph d="M110 700h220v-98h-100v-704h100v-98h-220v900z" glyph-name="bracketleft" horiz-adv-x="380" unicode="["/>
<glyph d="M20 700h120l320 -900h-120z" glyph-name="backslash" horiz-adv-x="480" unicode="\"/>
<glyph d="M270.014 -199.915h-219.974v97.9883h99.9883v703.914h-99.9883v97.9883h219.974v-899.891z" glyph-name="bracketright" horiz-adv-x="380" unicode="]"/>
<glyph d="M219 700h132l184 -260h-150l-106 155l-106 -155h-138z" glyph-name="asciicircum" unicode="^"/>
<glyph d="M0 -51h500v-98h-500v98z" glyph-name="underscore" horiz-adv-x="500" unicode="_"/>
<glyph d="M20 740h150l110 -160h-110z" glyph-name="grave" horiz-adv-x="300" unicode="`"/>
<glyph d="M219 -12q-43 0 -76 12.5t-56 35t-35 53t-12 66.5q0 160 190 160h158v25q0 52 -23.5 73t-74.5 21q-45 0 -65 -15.5t-23 -38.5h-132q2 34 17.5 64t44 51.5t69.5 34t94 12.5q51 0 92.5 -11t71 -35.5t45.5 -63.5t16 -94v-203q0 -42 1.5 -73.5t5.5 -61.5h-123q-4 22 -4.5 33.5 t-0.5 34.5q-22 -32 -66.5 -56t-113.5 -24zM260 90q24 0 47 6.5t41 20t29 34.5t11 49v25h-133q-38 0 -59.5 -17.5t-21.5 -47.5q0 -32 22 -51t64 -19z" glyph-name="a" horiz-adv-x="575" unicode="a"/>
<glyph d="M355 -12q-66 0 -109 27t-63 63v-78h-123v700h132v-243q26 38 67.5 61.5t95.5 23.5q106 0 165.5 -65.5t59.5 -196.5v-20q0 -137 -60.5 -204.5t-164.5 -67.5zM324 100q52 0 87 39.5t35 120.5v20q0 75 -34 112.5t-88 37.5q-57 0 -94.5 -32.5t-37.5 -97.5v-60 q0 -71 36.5 -105.5t95.5 -34.5z" glyph-name="b" horiz-adv-x="615" unicode="b"/>
<glyph d="M295 -12q-55 0 -102.5 17t-82.5 51t-55 85t-20 119v20q0 64 21 113t56.5 82t82.5 50t100 17q56 0 99.5 -15t73.5 -41t47 -61t20 -75h-134q-8 37 -32.5 58.5t-73.5 21.5q-26 0 -48.5 -9t-40 -27.5t-27.5 -46.5t-10 -67v-20q0 -42 9.5 -72.5t26.5 -50t40 -28.5t50 -9 q39 0 67.5 20.5t38.5 59.5h134q-5 -44 -24.5 -79.5t-51 -60.5t-73.5 -38.5t-91 -13.5z" glyph-name="c" horiz-adv-x="565" unicode="c"/>
<glyph d="M260 -12q-104 0 -164.5 67.5t-60.5 204.5v20q0 128 61 195t164 67q54 0 95.5 -23.5t67.5 -61.5v243h132v-700h-123v78q-20 -36 -63 -63t-109 -27zM291 100q59 0 95.5 34.5t36.5 105.5v60q0 65 -37.5 97.5t-94.5 32.5q-54 0 -88 -37.5t-34 -112.5v-20q0 -81 35 -120.5 t87 -39.5z" glyph-name="d" horiz-adv-x="615" unicode="d"/>
<glyph d="M300 -12q-54 0 -102.5 16.5t-84.5 50t-57 85t-21 120.5v20q0 66 20 115t55 81.5t81 49t99 16.5q125 0 190 -66t65 -191v-56h-375q1 -35 12 -60.5t29 -41.5t41.5 -23.5t47.5 -7.5q51 0 77 15t37 44h121q-16 -83 -79 -125t-156 -42zM295 434q-23 0 -45.5 -6t-39.5 -19 t-28 -35t-12 -53h247q-1 33 -10.5 55t-26 35t-38.5 18t-47 5z" glyph-name="e" horiz-adv-x="580" unicode="e"/>
<glyph d="M90 420h-65v110h65v20q0 76 42.5 116t147.5 40q15 0 37.5 -0.5t37.5 -2.5v-112q-15 2 -32.5 2.5t-32.5 0.5q-38 0 -53 -13t-15 -41v-10h123v-110h-123v-420h-132v420z" glyph-name="f" horiz-adv-x="365" unicode="f"/>
<glyph d="M290 -212q-63 0 -106.5 11.5t-71 33t-41 51.5t-16.5 66h134q3 -11 9 -21t18 -18.5t30 -13.5t44 -5q133 0 133 128v63q-26 -38 -67.5 -61.5t-95.5 -23.5q-104 0 -164.5 67t-60.5 200v20q0 124 61 190.5t164 66.5q66 0 109 -27t63 -63v78h123v-500q0 -118 -65.5 -180 t-199.5 -62zM291 110q59 0 95.5 34t36.5 101v60q0 61 -37.5 93t-94.5 32q-54 0 -88 -37t-34 -108v-20q0 -77 35 -116t87 -39z" glyph-name="g" horiz-adv-x="615" unicode="g"/>
<glyph d="M60 700h132v-243q9 15 23 30t34.5 27.5t47 20t61.5 7.5q97 0 144.5 -52t47.5 -150v-340h-132v309q0 60 -24.5 90.5t-83.5 30.5q-32 0 -54 -10t-36.5 -26.5t-21 -38.5t-6.5 -46v-309h-132v700z" glyph-name="h" horiz-adv-x="605" unicode="h"/>
<glyph d="M70 530h132v-530h-132v530zM136 580q-35 0 -57.5 22.5t-22.5 57.5t22.5 57.5t57.5 22.5t57.5 -22.5t22.5 -57.5t-22.5 -57.5t-57.5 -22.5z" glyph-name="i" horiz-adv-x="272" unicode="i"/>
<glyph d="M22 -212q-11 0 -25 0.5t-25 2.5v112q8 -2 17.5 -2.5t17.5 -0.5q18 0 30 5t19.5 17t10.5 33.5t3 54.5v520h132v-530q0 -63 -8.5 -104t-29.5 -65t-55.5 -33.5t-86.5 -9.5zM136 580q-35 0 -57.5 22.5t-22.5 57.5t22.5 57.5t57.5 22.5t57.5 -22.5t22.5 -57.5t-22.5 -57.5 t-57.5 -22.5z" glyph-name="j" horiz-adv-x="272" unicode="j"/>
<glyph d="M60 700h132v-388l196 218h152l-204 -227l224 -303h-154l-154 216l-60 -63v-153h-132v700z" glyph-name="k" horiz-adv-x="575" unicode="k"/>
<glyph d="M240 -6q-46 0 -79 8.5t-54.5 29.5t-31.5 56.5t-10 88.5v523h132v-507q0 -51 15 -69t58 -18q11 0 19 0.5t16 1.5v-111q-8 -2 -29 -2.5t-36 -0.5z" glyph-name="l" horiz-adv-x="330" unicode="l"/>
<glyph d="M60 530h122v-79q9 18 23.5 34t34 29t43 20.5t50.5 7.5q64 0 100.5 -26t51.5 -69q22 42 63.5 68.5t98.5 26.5q85 0 129 -48.5t44 -148.5v-345h-132v315q0 63 -20.5 89t-65.5 26q-40 0 -68 -30.5t-28 -84.5v-315h-132v315q0 63 -20.5 89t-65.5 26q-40 0 -68 -30.5 t-28 -84.5v-315h-132v530z" glyph-name="m" horiz-adv-x="875" unicode="m"/>
<glyph d="M60 530h122v-78q19 36 61.5 63t114.5 27q97 0 144.5 -52t47.5 -150v-340h-132v310q0 60 -24.5 90t-83.5 30q-32 0 -54 -10t-36.5 -26.5t-21 -38t-6.5 -45.5v-310h-132v530z" glyph-name="n" horiz-adv-x="605" unicode="n"/>
<glyph d="M300 -12q-54 0 -102.5 16.5t-84.5 50.5t-57 85t-21 120v20q0 65 21 114t57 82t84.5 49.5t102.5 16.5t102 -16.5t84.5 -49.5t57.5 -82t21 -114v-20q0 -68 -21 -119t-57.5 -85t-84.5 -51t-102 -17zM300 100q56 0 93.5 40t37.5 120v20q0 73 -37.5 111.5t-93.5 38.5 q-57 0 -94 -38.5t-37 -111.5v-20q0 -81 37 -120.5t94 -39.5z" glyph-name="o" horiz-adv-x="600" unicode="o"/>
<glyph d="M60 530h123v-78q20 36 63 63t109 27q106 0 165.5 -65.5t59.5 -196.5v-20q0 -137 -60.5 -204.5t-164.5 -67.5q-54 0 -95.5 23.5t-67.5 61.5v-273h-132v730zM324 100q52 0 87 39.5t35 120.5v20q0 75 -34 112.5t-88 37.5q-57 0 -94.5 -32.5t-37.5 -97.5v-60 q0 -71 36.5 -105.5t95.5 -34.5z" glyph-name="p" horiz-adv-x="615" unicode="p"/>
<glyph d="M423 73q-26 -38 -67.5 -61.5t-95.5 -23.5q-104 0 -164.5 67.5t-60.5 204.5v20q0 128 61 195t164 67q66 0 109 -27t63 -63v78h123v-730h-132v273zM291 100q59 0 95.5 34.5t36.5 105.5v60q0 65 -37.5 97.5t-94.5 32.5q-54 0 -88 -37.5t-34 -112.5v-20q0 -81 35 -120.5 t87 -39.5z" glyph-name="q" horiz-adv-x="615" unicode="q"/>
<glyph d="M60 530h122v-78q7 16 20 32.5t31 29t39.5 20.5t47.5 8q19 0 32.5 -2t17.5 -4v-117q-10 4 -25.5 7.5t-41.5 3.5q-30 0 -51 -10t-34.5 -26.5t-19.5 -38.5t-6 -46v-309h-132v530z" glyph-name="r" horiz-adv-x="390" unicode="r"/>
<glyph d="M275 -12q-65 0 -109.5 14t-72 37t-41.5 53t-17 63h132q5 -26 31 -42.5t77 -16.5q58 0 83 16t25 41q0 13 -6 22.5t-20.5 17.5t-39.5 14t-63 12q-43 6 -80 17t-64.5 30t-43.5 47.5t-16 69.5q0 33 15 62t44 50.5t71 34t95 12.5q57 0 97.5 -14t66.5 -37.5t39 -53.5t17 -62 h-132q-8 29 -31 44t-57 15q-50 0 -71.5 -15.5t-21.5 -38.5q0 -12 5 -21t18.5 -16t37 -12.5t59.5 -10.5q45 -6 83.5 -17.5t67.5 -30.5t45.5 -48t16.5 -69q0 -36 -15 -66.5t-45 -53t-75 -35t-105 -12.5z" glyph-name="s" horiz-adv-x="550" unicode="s"/>
<glyph d="M275 -6q-94 0 -137 40.5t-43 135.5v250h-70v110h70v120h132v-120h128v-110h-128v-230q0 -45 16.5 -64.5t61.5 -19.5q30 0 60 3v-110q-19 -2 -39.5 -3.5t-50.5 -1.5z" glyph-name="t" horiz-adv-x="400" unicode="t"/>
<glyph d="M242 -12q-93 0 -140 52.5t-47 162.5v327h132v-309q0 -60 23.5 -90.5t79.5 -30.5q30 0 51 10t35 26.5t20.5 38.5t6.5 46v309h132v-530h-122v78q-19 -36 -60.5 -63t-110.5 -27z" glyph-name="u" horiz-adv-x="595" unicode="u"/>
<glyph d="M10 530h148l144 -365l132 365h136l-204 -530h-132z" glyph-name="v" horiz-adv-x="580" unicode="v"/>
<glyph d="M20 530h142l86 -350l107 350h122l112 -350l91 350h130l-148 -530h-132l-117 370l-113 -370h-132z" glyph-name="w" horiz-adv-x="830" unicode="w"/>
<glyph d="M195 276l-170 254h147l116 -170l114 170h143l-168 -249l178 -281h-148l-124 198l-123 -198h-145z" glyph-name="x" unicode="x"/>
<glyph d="M150 -212q-15 0 -30 3v112q15 -3 30 -3q30 0 46.5 22.5t37.5 77.5l-224 530h148l144 -366l132 366h136l-204 -530q-22 -56 -41.5 -96.5t-43.5 -66t-55 -37.5t-76 -12z" glyph-name="y" horiz-adv-x="580" unicode="y"/>
<glyph d="M30 95l274 325h-264v110h430v-95l-274 -325h284v-110h-450v95z" glyph-name="z" horiz-adv-x="510" unicode="z"/>
<glyph d="M280 -200q-75 0 -117.5 42.5t-42.5 117.5v191q0 23 -13.5 36.5t-36.5 13.5v98q23 0 36.5 14t13.5 36v201q0 34 12 61.5t33 47t50.5 30.5t64.5 11h60v-98h-40q-60 0 -60 -60v-222q0 -30 -13.5 -46t-36.5 -24q23 -8 36.5 -24t13.5 -46v-222q0 -60 60 -60h40v-98h-60z" glyph-name="braceleft" horiz-adv-x="380" unicode="{"/>
<glyph d="M110 700h120v-900h-120v900z" glyph-name="bar" horiz-adv-x="340" unicode="|"/>
<glyph d="M100.034 699.976q74.9912 0 117.485 -42.4951q42.4951 -42.4941 42.4951 -117.485v-190.977q0 -22.9971 13.498 -36.4961q13.499 -13.498 36.4961 -13.498v-97.9883q-22.9971 0 -36.4961 -13.998q-13.498 -13.998 -13.498 -35.9951v-200.976q0 -33.9961 -11.999 -61.4932 q-11.998 -27.4961 -32.9951 -46.9941q-20.998 -19.4971 -50.4941 -30.4961t-64.4922 -10.999h-59.9932v97.9883h39.9951q59.9932 0 59.9932 59.9932v221.973q0 29.9961 13.498 45.9941q13.499 15.998 36.4961 23.9971q-22.9971 7.99902 -36.4961 23.9971 q-13.498 15.998 -13.498 45.9941v221.974q0 59.9922 -59.9932 59.9922h-39.9951v97.9883h59.9932z" glyph-name="braceright" horiz-adv-x="380" unicode="}"/>
<glyph d="M380 260q-34 0 -60 11.5t-48.5 25.5t-43.5 25.5t-43 11.5q-17 0 -29.5 -8.5t-20.5 -18.5q-10 -12 -17 -27l-88 55q16 35 39 62q20 23 49.5 43t71.5 20q34 0 60 -11.5t48.5 -25.5t43 -25.5t43.5 -11.5q16 0 29 8t21 19q10 11 17 27l88 -55q-16 -36 -39 -63 q-20 -23 -49.5 -42.5t-71.5 -19.5z" glyph-name="asciitilde" unicode="~"/>
<glyph glyph-name="uni00A0" horiz-adv-x="230" unicode=" "/>
<glyph d="M91 300h132v-500h-132v500zM155 372q-35 0 -60 25t-25 60q0 37 25 61t60 24t60 -24t25 -61q0 -35 -25 -60t-60 -25z" glyph-name="exclamdown" horiz-adv-x="310" unicode="¡"/>
<glyph d="M235 -6q-44 8 -80.5 28.5t-63 53.5t-41.5 79t-15 105v20q0 54 15.5 98t42.5 76t63.5 53t78.5 29v94h120v-93q84 -15 129 -66.5t51 -120.5h-134q-8 37 -32.5 58.5t-73.5 21.5q-26 0 -48.5 -9t-40 -27.5t-27.5 -46.5t-10 -67v-20q0 -42 9.5 -72.5t26.5 -50t40 -28.5t50 -9 q39 0 67.5 20.5t38.5 59.5h134q-8 -75 -56.5 -123.5t-123.5 -62.5v-114h-120v114z" glyph-name="cent" horiz-adv-x="565" unicode="¢"/>
<glyph d="M50 124h90v164h-80v104h80v108q0 100 60.5 156t172.5 56q110 0 166.5 -53.5t60.5 -143.5h-150q-4 34 -23 52.5t-54 18.5q-44 0 -63.5 -22t-19.5 -64v-108h165v-104h-165v-164h310v-124h-550v124z" glyph-name="sterling" horiz-adv-x="650" unicode="£"/>
<glyph d="M35 189l67 67q-13 23 -20 49t-7 55q0 28 7 54t20 49l-67 68l79 79l67 -68q48 28 104 28t103 -28l68 68l79 -79l-68 -68q28 -47 28 -103t-28 -104l68 -67l-79 -79l-68 67q-23 -13 -49 -20t-54 -7q-29 0 -55 7t-49 20l-67 -67zM285 272q37 0 61.5 25t24.5 63t-24.5 63 t-61.5 25t-61.5 -25t-24.5 -63t24.5 -63t61.5 -25z" glyph-name="currency" unicode="¤"/>
<glyph d="M255 137h-185v104h185v58h-185v104h104l-159 297h176l142 -297l142 297h160l-152 -297h107v-104h-185v-58h185v-104h-185v-137h-150v137z" glyph-name="yen" horiz-adv-x="650" unicode="¥"/>
<glyph d="M110 170h120v-370h-120v370zM110 700h120v-370h-120v370z" glyph-name="brokenbar" horiz-adv-x="340" unicode="¦"/>
<glyph d="M290 -212q-98 0 -151.5 49t-53.5 128h156q0 -51 49 -51q24 0 36.5 12.5t12.5 33.5q0 11 -3 22.5t-16 23t-38 23.5t-68 26q-72 23 -118 72t-46 123q0 57 28.5 101.5t77.5 70.5q-35 23 -53 56.5t-18 71.5q0 34 13.5 63.5t40 51.5t64.5 34.5t87 12.5q98 0 151.5 -49 t53.5 -128h-156q0 51 -49 51t-49 -46q0 -11 3.5 -22t16 -23t37.5 -24.5t69 -26.5q72 -23 117.5 -72t45.5 -122q0 -58 -28.5 -102.5t-77.5 -70.5q34 -23 52.5 -56t18.5 -71q0 -34 -14 -63.5t-40 -51.5t-64 -34.5t-87 -12.5zM290 172q38 0 61 21.5t23 56.5t-23 56.5t-61 21.5 t-61 -21.5t-23 -56.5t23 -56.5t61 -21.5z" glyph-name="section" horiz-adv-x="580" unicode="§"/>
<glyph d="M94 586q-32 0 -53 21t-21 53t21 53t53 21t53 -21t21 -53t-21 -53t-53 -21zM306 586q-32 0 -53 21t-21 53t21 53t53 21t53 -21t21 -53t-21 -53t-53 -21z" glyph-name="dieresis" horiz-adv-x="400" unicode="¨"/>
<glyph d="M420 -22q-79 0 -147.5 28.5t-119 78.5t-79.5 118t-29 147t29 147t79.5 118t119 78.5t147.5 28.5t147.5 -28.5t119 -78.5t79.5 -118t29 -147t-29 -147t-79.5 -118t-119 -78.5t-147.5 -28.5zM420 74q57 0 106.5 21t86.5 58t58 87.5t21 109.5q0 58 -21 108.5t-58 88 t-86.5 58.5t-106.5 21t-106.5 -21t-86.5 -58.5t-58 -88t-21 -108.5q0 -59 21 -109.5t58 -87.5t86.5 -58t106.5 -21zM420 138q-88 0 -141.5 53t-53.5 154v10q0 48 14.5 86.5t40.5 65.5t62 41t78 14q84 0 132 -40t53 -112h-116q-8 31 -23 46.5t-46 15.5q-32 0 -55.5 -29.5 t-23.5 -87.5v-10q0 -62 24 -89.5t55 -27.5q32 0 48 19t21 48h116q-6 -72 -53 -114.5t-132 -42.5z" glyph-name="copyright" horiz-adv-x="840" unicode="©"/>
<glyph d="M140 368q-61 0 -88 27t-27 77q0 47 32.5 75.5t112.5 28.5h71v9q0 29 -9.5 39t-26.5 10q-14 0 -24.5 -7.5t-14.5 -26.5h-121q2 27 11 47.5t27.5 35t48.5 22t73 7.5q90 0 125 -31.5t35 -95.5v-125q0 -26 2 -45.5t5 -34.5h-114q-5 14 -5 40q-6 -11 -17.5 -20t-26.5 -16.5 t-33 -11.5t-36 -4zM182 446q27 0 43 14t16 40v14h-51q-20 0 -30.5 -10t-10.5 -27t9.5 -24t23.5 -7z" glyph-name="ordfeminine" horiz-adv-x="400" unicode="ª"/>
<glyph d="M30 220v110l220 185v-138l-125 -100l125 -100v-142zM270 220v110l220 185v-138l-125 -100l125 -100v-142z" glyph-name="guillemotleft" horiz-adv-x="540" unicode="«"/>
<glyph d="M398 298h-358v124h490v-292h-132v168z" glyph-name="logicalnot" unicode="¬"/>
<glyph d="M30 342h320v-124h-320v124z" glyph-name="uni00AD" horiz-adv-x="380" unicode="­"/>
<glyph d="M320 139q-59 0 -111 22.5t-90.5 61t-61 90.5t-22.5 112t22.5 112t61 90.5t90.5 61t111 22.5t111 -22.5t90.5 -61t61 -90.5t22.5 -112t-22.5 -112t-61 -90.5t-90.5 -61t-111 -22.5zM320 214q43 0 80.5 15.5t65 43.5t43 67t15.5 85t-15.5 85t-43 67t-65 43.5t-80.5 15.5 q-44 0 -81 -15.5t-64.5 -43.5t-43 -67t-15.5 -85t15.5 -85t43 -67t64.5 -43.5t81 -15.5zM205 575h115q74 0 104.5 -26t30.5 -73q0 -33 -14.5 -55.5t-49.5 -33.5l54 -112h-90l-42 104h-24v-104h-84v300zM316 443q32 0 43.5 8.5t11.5 24.5t-11.5 24.5t-43.5 8.5h-27v-66h27z " glyph-name="registered" horiz-adv-x="640" unicode="®"/>
<glyph d="M20 705h300v-90h-300v90z" glyph-name="macron" horiz-adv-x="340" unicode="¯"/>
<glyph d="M195 382q-34 0 -64 13t-52.5 35.5t-35.5 52.5t-13 64t13 64t35.5 52.5t52.5 35.5t64 13t64 -13t52.5 -35.5t35.5 -52.5t13 -64t-13 -64t-35.5 -52.5t-52.5 -35.5t-64 -13zM195 486q26 0 43.5 17.5t17.5 43.5t-17.5 43.5t-43.5 17.5t-43.5 -17.5t-17.5 -43.5t17.5 -43.5 t43.5 -17.5z" glyph-name="degree" horiz-adv-x="390" unicode="°"/>
<glyph d="M40 192h490v-124h-490v124zM219 348h-179v124h179v183h132v-183h179v-124h-179v-78h-132v78z" glyph-name="plusminus" unicode="±"/>
<glyph d="M20 462l159 123q30 23 40 37t10 33q0 14 -9.5 23.5t-29.5 9.5q-17 0 -28 -11.5t-11 -31.5h-126q0 69 41 108t124 39t124 -36t41 -91q0 -20 -4.5 -36t-16 -32t-30.5 -34t-48 -40l-53 -41h157v-102h-340v82z" glyph-name="uni00B2" horiz-adv-x="380" unicode="²"/>
<glyph d="M195 368q-90 0 -132.5 38.5t-42.5 103.5h126q0 -38 49 -38t49 37t-50 37h-39v78h39q40 0 40 34q0 30 -39 30q-19 0 -29 -9t-10 -24h-126q0 65 39.5 101t125.5 36q81 0 123 -33t42 -83q0 -39 -17.5 -57.5t-47.5 -28.5q30 -10 52.5 -33t22.5 -65q0 -52 -42.5 -88 t-132.5 -36z" glyph-name="uni00B3" horiz-adv-x="390" unicode="³"/>
<glyph d="M130 740h150l-150 -160h-110z" glyph-name="acute" horiz-adv-x="300" unicode="´"/>
<glyph d="M60 530h132v-309q0 -60 23.5 -90.5t79.5 -30.5q30 0 51 10t35 26.5t20.5 38.5t6.5 46v309h132v-530h-122v78q-19 -36 -60.5 -63t-110.5 -27q-15 0 -28.5 2t-26.5 5v-195h-132v730z" glyph-name="mu" horiz-adv-x="600" unicode="µ"/>
<glyph d="M185 306q-32 8 -59.5 26.5t-47.5 44t-31.5 57t-11.5 66.5q0 41 16 77.5t43 63.5t63.5 43t77.5 16h320v-900h-120v790h-130v-790h-120v506z" glyph-name="paragraph" horiz-adv-x="635" unicode="¶"/>
<glyph d="M155 190q-35 0 -60 25t-25 60q0 37 25 61t60 24t60 -24t25 -61q0 -35 -25 -60t-60 -25z" glyph-name="periodcentered" horiz-adv-x="310" unicode="·"/>
<glyph d="M90 -212q-17 0 -30 1t-22 3q-11 2 -18 4v73q6 -2 14 -3q7 -1 16 -1.5t20 -0.5q27 0 36.5 8.5t9.5 18.5q0 11 -9 19.5t-40 8.5l17 91h76l-7 -46q38 -8 52.5 -31t14.5 -48q0 -45 -30.5 -71t-99.5 -26z" glyph-name="cedilla" horiz-adv-x="240" unicode="¸"/>
<glyph d="M119 649l-104 -74v127l110 78h120v-400h-126v269z" glyph-name="uni00B9" horiz-adv-x="270" unicode="¹"/>
<glyph d="M190 368q-39 0 -70 12t-53.5 34t-34.5 52.5t-12 68.5v10q0 37 12 68t34.5 53t53.5 34t70 12t70 -12t53.5 -34t34.5 -53t12 -68v-10q0 -38 -12 -68.5t-34.5 -52.5t-53.5 -34t-70 -12zM190 472q20 0 32 14.5t12 48.5v10q0 34 -12 48.5t-32 14.5t-32 -14.5t-12 -48.5v-10 q0 -34 12 -48.5t32 -14.5z" glyph-name="ordmasculine" horiz-adv-x="380" unicode="º"/>
<glyph d="M270 330v-110l-220 -185v138l125 100l-125 100v142zM510 330v-110l-220 -185v138l125 100l-125 100v142z" glyph-name="guillemotright" horiz-adv-x="540" unicode="»"/>
<glyph d="M620 700h140l-480 -700h-140zM119 570l-104 -74v127l110 78h120v-400h-126v269zM664 70h-194v82l184 249h136v-229h40v-102h-40v-69h-126v69zM664 172v108l-72 -108h72z" glyph-name="onequarter" horiz-adv-x="860" unicode="¼"/>
<glyph d="M620 700h140l-480 -700h-140zM119 570l-104 -74v127l110 78h120v-400h-126v269zM560 83l159 123q30 23 40 37t10 33q0 14 -9.5 23.5t-29.5 9.5q-17 0 -28 -11.5t-11 -31.5h-126q0 69 41 108t124 39t124 -36t41 -91q0 -20 -4.5 -36t-16 -32t-30.5 -34t-48 -40l-53 -41h157 v-102h-340v82z" glyph-name="onehalf" horiz-adv-x="920" unicode="½"/>
<glyph d="M650 700h140l-480 -700h-140zM195 289q-90 0 -132.5 38.5t-42.5 103.5h126q0 -38 49 -38t49 37t-50 37h-39v78h39q40 0 40 34q0 30 -39 30q-19 0 -29 -9t-10 -24h-126q0 65 39.5 101t125.5 36q81 0 123 -33t42 -83q0 -39 -17.5 -57.5t-47.5 -28.5q30 -10 52.5 -33 t22.5 -65q0 -52 -42.5 -88t-132.5 -36zM694 70h-194v82l184 249h136v-229h40v-102h-40v-69h-126v69zM694 172v108l-72 -108h72z" glyph-name="threequarters" horiz-adv-x="890" unicode="¾"/>
<glyph d="M265 -212q-54 0 -96.5 14.5t-72.5 40.5t-45.5 61t-15.5 76q0 27 5 49t16.5 42t30.5 40.5t46 44.5q22 19 35.5 33t20 24.5t8.5 19t2 17.5v50h132v-70q0 -38 -20 -68.5t-65 -68.5q-36 -31 -56.5 -54t-20.5 -54q0 -38 24.5 -61.5t71.5 -23.5q43 0 69.5 23.5t26.5 66.5h134 q0 -41 -17.5 -77.5t-48 -64.5t-73 -44t-91.5 -16zM265 372q-35 0 -60 25t-25 60q0 37 25 61t60 24t60 -24t25 -61q0 -35 -25 -60t-60 -25z" glyph-name="questiondown" horiz-adv-x="530" unicode="¿"/>
<glyph d="M468 143h-259l-53 -143h-146l260 700h150l260 -700h-158zM255 267h168l-84 243zM135 900h160l110 -150h-120z" glyph-name="Agrave" horiz-adv-x="690" unicode="À"/>
<glyph d="M468 143h-259l-53 -143h-146l260 700h150l260 -700h-158zM255 267h168l-84 243zM395 900h160l-150 -150h-120z" glyph-name="Aacute" horiz-adv-x="690" unicode="Á"/>
<glyph d="M468 143h-259l-53 -143h-146l260 700h150l260 -700h-158zM255 267h168l-84 243zM275 900h140l110 -150h-120l-60 60l-60 -60h-120z" glyph-name="Acircumflex" horiz-adv-x="690" unicode="Â"/>
<glyph d="M468 143h-259l-53 -143h-146l260 700h150l260 -700h-158zM255 267h168l-84 243zM415 750q-26 0 -45 7t-34.5 15.5t-29.5 15.5t-31 7q-14 0 -23 -6t-15 -14q-7 -9 -12 -20l-70 40q8 29 24 52q14 20 37 36.5t59 16.5q26 0 45 -7t34.5 -15.5t29.5 -15.5t31 -7q13 0 22.5 6 t15.5 14q7 9 12 20l70 -40q-8 -30 -24 -53q-14 -20 -37.5 -36t-58.5 -16z" glyph-name="Atilde" horiz-adv-x="690" unicode="Ã"/>
<glyph d="M468 143h-259l-53 -143h-146l260 700h150l260 -700h-158zM255 267h168l-84 243zM225 745q-35 0 -57.5 22.5t-22.5 57.5t22.5 57.5t57.5 22.5t57.5 -22.5t22.5 -57.5t-22.5 -57.5t-57.5 -22.5zM465 745q-35 0 -57.5 22.5t-22.5 57.5t22.5 57.5t57.5 22.5t57.5 -22.5 t22.5 -57.5t-22.5 -57.5t-57.5 -22.5z" glyph-name="Adieresis" horiz-adv-x="690" unicode="Ä"/>
<glyph d="M468 143h-259l-53 -143h-146l260 700h150l260 -700h-158zM255 267h168l-84 243zM345 730q-28 0 -51.5 8.5t-41 23.5t-27.5 36t-10 47q0 25 10 46.5t27.5 36.5t41 23.5t51.5 8.5t51.5 -8.5t41 -23.5t27.5 -36.5t10 -46.5q0 -26 -10 -47t-27.5 -36t-41 -23.5t-51.5 -8.5z M345 810q17 0 28.5 9t11.5 26t-11.5 26t-28.5 9t-28.5 -9t-11.5 -26t11.5 -26t28.5 -9z" glyph-name="Aring" horiz-adv-x="690" unicode="Å"/>
<glyph d="M420 700h530v-124h-339v-156h309v-120h-309v-176h339v-124h-490v143h-210l-84 -143h-156zM460 267v248l-138 -248h138z" glyph-name="AE" horiz-adv-x="1000" unicode="Æ"/>
<glyph d="M365 -12q-69 0 -126.5 20t-99.5 62.5t-65.5 110.5t-23.5 164v20q0 92 24.5 157.5t67 107.5t100 62t123.5 20q59 0 111 -14t91.5 -43.5t64 -75.5t28.5 -109h-156q-11 60 -48 88t-91 28q-31 0 -59.5 -11t-50.5 -37t-35.5 -68t-13.5 -105v-20q0 -66 14 -110.5t36.5 -71 t51 -38t57.5 -11.5q57 0 94 29.5t45 86.5h156q-5 -66 -29 -112t-63 -75t-91 -42t-112 -13zM335 -212q-17 0 -30 1t-22 3q-11 2 -18 4v75q6 -2 14 -3q7 -1 16 -1.5t20 -0.5q27 0 35.5 7.5t8.5 17.5q0 11 -8.5 18.5t-40.5 7.5l17 93h80l-7 -46q37 -8 51 -31t14 -48 q0 -45 -30.5 -71t-99.5 -26z" glyph-name="Ccedilla" horiz-adv-x="700" unicode="Ç"/>
<glyph d="M80 700h490v-124h-339v-156h309v-120h-309v-176h339v-124h-490v700zM115 900h160l110 -150h-120z" glyph-name="Egrave" horiz-adv-x="620" unicode="È"/>
<glyph d="M80 700h490v-124h-339v-156h309v-120h-309v-176h339v-124h-490v700zM375 900h160l-150 -150h-120z" glyph-name="Eacute" horiz-adv-x="620" unicode="É"/>
<glyph d="M80 700h490v-124h-339v-156h309v-120h-309v-176h339v-124h-490v700zM255 900h140l110 -150h-120l-60 60l-60 -60h-120z" glyph-name="Ecircumflex" horiz-adv-x="620" unicode="Ê"/>
<glyph d="M80 700h490v-124h-339v-156h309v-120h-309v-176h339v-124h-490v700zM200 745q-35 0 -57.5 22.5t-22.5 57.5t22.5 57.5t57.5 22.5t57.5 -22.5t22.5 -57.5t-22.5 -57.5t-57.5 -22.5zM440 745q-35 0 -57.5 22.5t-22.5 57.5t22.5 57.5t57.5 22.5t57.5 -22.5t22.5 -57.5 t-22.5 -57.5t-57.5 -22.5z" glyph-name="Edieresis" horiz-adv-x="620" unicode="Ë"/>
<glyph d="M90 700h150v-700h-150v700zM-44 900h160l110 -150h-120z" glyph-name="Igrave" horiz-adv-x="330" unicode="Ì"/>
<glyph d="M90 700h150v-700h-150v700zM215 900h160l-150 -150h-120z" glyph-name="Iacute" horiz-adv-x="330" unicode="Í"/>
<glyph d="M90 700h150v-700h-150v700zM96 900h140l110 -150h-120l-60 60l-60 -60h-120z" glyph-name="Icircumflex" horiz-adv-x="330" unicode="Î"/>
<glyph d="M90 700h150v-700h-150v700zM46 745q-35 0 -57.5 22.5t-22.5 57.5t22.5 57.5t57.5 22.5t57.5 -22.5t22.5 -57.5t-22.5 -57.5t-57.5 -22.5zM286 745q-35 0 -57.5 22.5t-22.5 57.5t22.5 57.5t57.5 22.5t57.5 -22.5t22.5 -57.5t-22.5 -57.5t-57.5 -22.5z" glyph-name="Idieresis" horiz-adv-x="330" unicode="Ï"/>
<glyph d="M105 303h-80v104h80v293h245q79 0 141 -21.5t105 -63.5t66 -105t23 -145v-20q0 -84 -23.5 -148.5t-68 -108t-108.5 -66t-145 -22.5h-235v303zM330 124q40 0 76 11.5t63.5 37.5t43.5 68t16 104v20q0 58 -15 98.5t-40.5 65.5t-60 36t-73.5 11h-85v-169h140v-104h-140v-179 h75z" glyph-name="Eth" horiz-adv-x="735" unicode="Ð"/>
<glyph d="M80 700h142l308 -450v450h150v-700h-142l-308 450v-450h-150v700zM450 750q-26 0 -45 7t-34.5 15.5t-29.5 15.5t-31 7q-14 0 -23 -6t-15 -14q-7 -9 -12 -20l-70 40q8 29 24 52q14 20 37 36.5t59 16.5q26 0 45 -7t34.5 -15.5t29.5 -15.5t31 -7q13 0 22.5 6t15.5 14 q7 9 12 20l70 -40q-8 -30 -24 -53q-14 -20 -37.5 -36t-58.5 -16z" glyph-name="Ntilde" horiz-adv-x="760" unicode="Ñ"/>
<glyph d="M380 -12q-66 0 -125.5 20t-105 63t-72.5 110.5t-27 163.5v20q0 92 27 157.5t72.5 107.5t105 62t125.5 20t125.5 -20t105 -62t72.5 -107.5t27 -157.5v-20q0 -96 -27 -163.5t-72.5 -110.5t-105 -63t-125.5 -20zM380 114q34 0 65.5 11.5t55.5 38.5t38.5 71t14.5 110v20 q0 62 -14.5 104t-38.5 68t-55.5 37.5t-65.5 11.5t-65.5 -11.5t-55.5 -37.5t-38.5 -68t-14.5 -104v-20q0 -66 14.5 -110t38.5 -71t55.5 -38.5t65.5 -11.5zM170 900h160l110 -150h-120z" glyph-name="Ograve" horiz-adv-x="760" unicode="Ò"/>
<glyph d="M380 -12q-66 0 -125.5 20t-105 63t-72.5 110.5t-27 163.5v20q0 92 27 157.5t72.5 107.5t105 62t125.5 20t125.5 -20t105 -62t72.5 -107.5t27 -157.5v-20q0 -96 -27 -163.5t-72.5 -110.5t-105 -63t-125.5 -20zM380 114q34 0 65.5 11.5t55.5 38.5t38.5 71t14.5 110v20 q0 62 -14.5 104t-38.5 68t-55.5 37.5t-65.5 11.5t-65.5 -11.5t-55.5 -37.5t-38.5 -68t-14.5 -104v-20q0 -66 14.5 -110t38.5 -71t55.5 -38.5t65.5 -11.5zM430 900h160l-150 -150h-120z" glyph-name="Oacute" horiz-adv-x="760" unicode="Ó"/>
<glyph d="M380 -12q-66 0 -125.5 20t-105 63t-72.5 110.5t-27 163.5v20q0 92 27 157.5t72.5 107.5t105 62t125.5 20t125.5 -20t105 -62t72.5 -107.5t27 -157.5v-20q0 -96 -27 -163.5t-72.5 -110.5t-105 -63t-125.5 -20zM380 114q34 0 65.5 11.5t55.5 38.5t38.5 71t14.5 110v20 q0 62 -14.5 104t-38.5 68t-55.5 37.5t-65.5 11.5t-65.5 -11.5t-55.5 -37.5t-38.5 -68t-14.5 -104v-20q0 -66 14.5 -110t38.5 -71t55.5 -38.5t65.5 -11.5zM310 900h140l110 -150h-120l-60 60l-60 -60h-120z" glyph-name="Ocircumflex" horiz-adv-x="760" unicode="Ô"/>
<glyph d="M380 -12q-66 0 -125.5 20t-105 63t-72.5 110.5t-27 163.5v20q0 92 27 157.5t72.5 107.5t105 62t125.5 20t125.5 -20t105 -62t72.5 -107.5t27 -157.5v-20q0 -96 -27 -163.5t-72.5 -110.5t-105 -63t-125.5 -20zM380 114q34 0 65.5 11.5t55.5 38.5t38.5 71t14.5 110v20 q0 62 -14.5 104t-38.5 68t-55.5 37.5t-65.5 11.5t-65.5 -11.5t-55.5 -37.5t-38.5 -68t-14.5 -104v-20q0 -66 14.5 -110t38.5 -71t55.5 -38.5t65.5 -11.5zM450 750q-26 0 -45 7t-34.5 15.5t-29.5 15.5t-31 7q-14 0 -23 -6t-15 -14q-7 -9 -12 -20l-70 40q8 29 24 52 q14 20 37 36.5t59 16.5q26 0 45 -7t34.5 -15.5t29.5 -15.5t31 -7q13 0 22.5 6t15.5 14q7 9 12 20l70 -40q-8 -30 -24 -53q-14 -20 -37.5 -36t-58.5 -16z" glyph-name="Otilde" horiz-adv-x="760" unicode="Õ"/>
<glyph d="M380 -12q-66 0 -125.5 20t-105 63t-72.5 110.5t-27 163.5v20q0 92 27 157.5t72.5 107.5t105 62t125.5 20t125.5 -20t105 -62t72.5 -107.5t27 -157.5v-20q0 -96 -27 -163.5t-72.5 -110.5t-105 -63t-125.5 -20zM380 114q34 0 65.5 11.5t55.5 38.5t38.5 71t14.5 110v20 q0 62 -14.5 104t-38.5 68t-55.5 37.5t-65.5 11.5t-65.5 -11.5t-55.5 -37.5t-38.5 -68t-14.5 -104v-20q0 -66 14.5 -110t38.5 -71t55.5 -38.5t65.5 -11.5zM260 745q-35 0 -57.5 22.5t-22.5 57.5t22.5 57.5t57.5 22.5t57.5 -22.5t22.5 -57.5t-22.5 -57.5t-57.5 -22.5zM500 745 q-35 0 -57.5 22.5t-22.5 57.5t22.5 57.5t57.5 22.5t57.5 -22.5t22.5 -57.5t-22.5 -57.5t-57.5 -22.5z" glyph-name="Odieresis" horiz-adv-x="760" unicode="Ö"/>
<glyph d="M60 219l141 141l-141 141l84 84l141 -141l141 141l84 -84l-141 -141l141 -141l-84 -84l-141 141l-141 -141z" glyph-name="multiply" unicode="×"/>
<glyph d="M380 -12q-54 0 -104.5 13t-92.5 42l-44 -55l-64 54l47 58q-34 43 -53 103.5t-19 141.5v20q0 92 27 157.5t72.5 107.5t105 62t125.5 20q54 0 104 -13t92 -42l45 55l64 -53l-47 -58q33 -42 52.5 -100t19.5 -136v-20q0 -96 -27 -163.5t-72.5 -110.5t-105 -63t-125.5 -20z M380 114q34 0 65.5 11.5t55.5 38.5t38.5 71t14.5 110v20q0 34 -5 61.5t-13 50.5l-264 -326q23 -20 50.5 -28.5t57.5 -8.5zM380 586q-34 0 -65.5 -11.5t-55.5 -37.5t-38.5 -68t-14.5 -104v-20q0 -74 18 -120l264 324q-23 20 -51 28.5t-57 8.5z" glyph-name="Oslash" horiz-adv-x="760" unicode="Ø"/>
<glyph d="M365 -12q-68 0 -122.5 18t-92.5 54.5t-59 91.5t-21 128v420h150v-406q0 -90 35 -135t110 -45t110 45t35 134v407h150v-420q0 -73 -20.5 -128t-59 -91.5t-93 -54.5t-122.5 -18zM155 900h160l110 -150h-120z" glyph-name="Ugrave" horiz-adv-x="730" unicode="Ù"/>
<glyph d="M365 -12q-68 0 -122.5 18t-92.5 54.5t-59 91.5t-21 128v420h150v-406q0 -90 35 -135t110 -45t110 45t35 134v407h150v-420q0 -73 -20.5 -128t-59 -91.5t-93 -54.5t-122.5 -18zM415 900h160l-150 -150h-120z" glyph-name="Uacute" horiz-adv-x="730" unicode="Ú"/>
<glyph d="M365 -12q-68 0 -122.5 18t-92.5 54.5t-59 91.5t-21 128v420h150v-406q0 -90 35 -135t110 -45t110 45t35 134v407h150v-420q0 -73 -20.5 -128t-59 -91.5t-93 -54.5t-122.5 -18zM295 900h140l110 -150h-120l-60 60l-60 -60h-120z" glyph-name="Ucircumflex" horiz-adv-x="730" unicode="Û"/>
<glyph d="M365 -12q-68 0 -122.5 18t-92.5 54.5t-59 91.5t-21 128v420h150v-406q0 -90 35 -135t110 -45t110 45t35 134v407h150v-420q0 -73 -20.5 -128t-59 -91.5t-93 -54.5t-122.5 -18zM245 745q-35 0 -57.5 22.5t-22.5 57.5t22.5 57.5t57.5 22.5t57.5 -22.5t22.5 -57.5 t-22.5 -57.5t-57.5 -22.5zM485 745q-35 0 -57.5 22.5t-22.5 57.5t22.5 57.5t57.5 22.5t57.5 -22.5t22.5 -57.5t-22.5 -57.5t-57.5 -22.5z" glyph-name="Udieresis" horiz-adv-x="730" unicode="Ü"/>
<glyph d="M275 267l-265 433h176l167 -281l157 281h160l-245 -433v-267h-150v267zM398 900h160l-150 -150h-120z" glyph-name="Yacute" horiz-adv-x="680" unicode="Ý"/>
<glyph d="M80 700h150v-110h120q142 0 211 -62.5t69 -167.5t-69 -167.5t-211 -62.5h-120v-130h-150v700zM335 254q80 0 112.5 27.5t32.5 78.5t-32.5 78.5t-112.5 27.5h-105v-212h105z" glyph-name="Thorn" horiz-adv-x="665" unicode="Þ"/>
<glyph d="M60 475q0 115 59.5 176t170.5 61q54 0 95.5 -13.5t69 -37t41.5 -56t14 -70.5q0 -51 -26 -91t-74 -57q38 -6 65 -22t43.5 -39t24 -51.5t7.5 -59.5v-10q0 -105 -57.5 -158t-187.5 -53q-11 0 -25 0.5t-25 2.5v112q11 -2 25 -2.5t25 -0.5q113 0 113 107v10q0 51 -30 79 t-93 28h-20v100h15q38 0 63 21t25 64q0 85 -88 85q-48 0 -73 -31t-25 -94v-475h-132v475z" glyph-name="germandbls" horiz-adv-x="590" unicode="ß"/>
<glyph d="M219 -12q-43 0 -76 12.5t-56 35t-35 53t-12 66.5q0 160 190 160h158v25q0 52 -23.5 73t-74.5 21q-45 0 -65 -15.5t-23 -38.5h-132q2 34 17.5 64t44 51.5t69.5 34t94 12.5q51 0 92.5 -11t71 -35.5t45.5 -63.5t16 -94v-203q0 -42 1.5 -73.5t5.5 -61.5h-123q-4 22 -4.5 33.5 t-0.5 34.5q-22 -32 -66.5 -56t-113.5 -24zM260 90q24 0 47 6.5t41 20t29 34.5t11 49v25h-133q-38 0 -59.5 -17.5t-21.5 -47.5q0 -32 22 -51t64 -19zM90 740h150l110 -160h-110z" glyph-name="agrave" horiz-adv-x="575" unicode="à"/>
<glyph d="M219 -12q-43 0 -76 12.5t-56 35t-35 53t-12 66.5q0 160 190 160h158v25q0 52 -23.5 73t-74.5 21q-45 0 -65 -15.5t-23 -38.5h-132q2 34 17.5 64t44 51.5t69.5 34t94 12.5q51 0 92.5 -11t71 -35.5t45.5 -63.5t16 -94v-203q0 -42 1.5 -73.5t5.5 -61.5h-123q-4 22 -4.5 33.5 t-0.5 34.5q-22 -32 -66.5 -56t-113.5 -24zM260 90q24 0 47 6.5t41 20t29 34.5t11 49v25h-133q-38 0 -59.5 -17.5t-21.5 -47.5q0 -32 22 -51t64 -19zM350 740h150l-150 -160h-110z" glyph-name="aacute" horiz-adv-x="575" unicode="á"/>
<glyph d="M219 -12q-43 0 -76 12.5t-56 35t-35 53t-12 66.5q0 160 190 160h158v25q0 52 -23.5 73t-74.5 21q-45 0 -65 -15.5t-23 -38.5h-132q2 34 17.5 64t44 51.5t69.5 34t94 12.5q51 0 92.5 -11t71 -35.5t45.5 -63.5t16 -94v-203q0 -42 1.5 -73.5t5.5 -61.5h-123q-4 22 -4.5 33.5 t-0.5 34.5q-22 -32 -66.5 -56t-113.5 -24zM260 90q24 0 47 6.5t41 20t29 34.5t11 49v25h-133q-38 0 -59.5 -17.5t-21.5 -47.5q0 -32 22 -51t64 -19zM230 740h130l110 -160h-110l-65 70l-65 -70h-110z" glyph-name="acircumflex" horiz-adv-x="575" unicode="â"/>
<glyph d="M219 -12q-43 0 -76 12.5t-56 35t-35 53t-12 66.5q0 160 190 160h158v25q0 52 -23.5 73t-74.5 21q-45 0 -65 -15.5t-23 -38.5h-132q2 34 17.5 64t44 51.5t69.5 34t94 12.5q51 0 92.5 -11t71 -35.5t45.5 -63.5t16 -94v-203q0 -42 1.5 -73.5t5.5 -61.5h-123q-4 22 -4.5 33.5 t-0.5 34.5q-22 -32 -66.5 -56t-113.5 -24zM260 90q24 0 47 6.5t41 20t29 34.5t11 49v25h-133q-38 0 -59.5 -17.5t-21.5 -47.5q0 -32 22 -51t64 -19zM355 590q-23 0 -39.5 7t-30 15.5t-25.5 15.5t-25 7q-14 0 -23 -6t-15 -14q-7 -9 -12 -20l-60 35q8 28 23 50q13 19 34 34.5 t53 15.5q22 0 39 -7t30.5 -15.5t25.5 -15.5t25 -7t22.5 6t15.5 14q7 9 12 20l60 -35q-8 -28 -23 -50q-13 -19 -34 -34.5t-53 -15.5z" glyph-name="atilde" horiz-adv-x="575" unicode="ã"/>
<glyph d="M219 -12q-43 0 -76 12.5t-56 35t-35 53t-12 66.5q0 160 190 160h158v25q0 52 -23.5 73t-74.5 21q-45 0 -65 -15.5t-23 -38.5h-132q2 34 17.5 64t44 51.5t69.5 34t94 12.5q51 0 92.5 -11t71 -35.5t45.5 -63.5t16 -94v-203q0 -42 1.5 -73.5t5.5 -61.5h-123q-4 22 -4.5 33.5 t-0.5 34.5q-22 -32 -66.5 -56t-113.5 -24zM260 90q24 0 47 6.5t41 20t29 34.5t11 49v25h-133q-38 0 -59.5 -17.5t-21.5 -47.5q0 -32 22 -51t64 -19zM189 586q-32 0 -53 21t-21 53t21 53t53 21t53 -21t21 -53t-21 -53t-53 -21zM401 586q-32 0 -53 21t-21 53t21 53t53 21 t53 -21t21 -53t-21 -53t-53 -21z" glyph-name="adieresis" horiz-adv-x="575" unicode="ä"/>
<glyph d="M219 -12q-43 0 -76 12.5t-56 35t-35 53t-12 66.5q0 160 190 160h158v25q0 52 -23.5 73t-74.5 21q-45 0 -65 -15.5t-23 -38.5h-132q2 34 17.5 64t44 51.5t69.5 34t94 12.5q51 0 92.5 -11t71 -35.5t45.5 -63.5t16 -94v-203q0 -42 1.5 -73.5t5.5 -61.5h-123q-4 22 -4.5 33.5 t-0.5 34.5q-22 -32 -66.5 -56t-113.5 -24zM260 90q24 0 47 6.5t41 20t29 34.5t11 49v25h-133q-38 0 -59.5 -17.5t-21.5 -47.5q0 -32 22 -51t64 -19zM295 565q-27 0 -49.5 9t-39.5 24.5t-26.5 36.5t-9.5 45t9.5 45t26.5 36.5t39.5 24.5t49.5 9t49.5 -9t39.5 -24.5t26.5 -36.5 t9.5 -45t-9.5 -45t-26.5 -36.5t-39.5 -24.5t-49.5 -9zM295 643q17 0 27 10t10 27t-10 27t-27 10t-27 -10t-10 -27t10 -27t27 -10z" glyph-name="aring" horiz-adv-x="575" unicode="å"/>
<glyph d="M219 -12q-43 0 -76.5 12.5t-56 35t-34.5 53t-12 66.5q0 159 190 159h158v27q0 51 -23.5 72t-74.5 21q-45 0 -65 -15.5t-23 -38.5h-132q2 34 17.5 64t44 51.5t69.5 34t94 12.5q60 0 102 -18.5t71 -53.5q27 32 70.5 52t106.5 20q125 0 190 -66t65 -191v-62h-375 q1 -33 12 -57t29 -39.5t41.5 -23t47.5 -7.5q51 0 77 15t37 44h121q-16 -83 -79 -125t-156 -42q-69 0 -122.5 24.5t-82.5 75.5q-29 -49 -87.5 -74.5t-143.5 -25.5zM260 90q24 0 47 6.5t41 20t29 34.5t11 49v24h-133q-38 0 -59.5 -17t-21.5 -47q0 -32 22 -51t64 -19zM650 434 q-23 0 -45.5 -6t-39.5 -19.5t-28 -36t-12 -55.5h247q-1 35 -10.5 57.5t-26 36t-38.5 18.5t-47 5z" glyph-name="ae" horiz-adv-x="935" unicode="æ"/>
<glyph d="M295 -12q-55 0 -102.5 17t-82.5 51t-55 85t-20 119v20q0 64 21 113t56.5 82t82.5 50t100 17q56 0 99.5 -15t73.5 -41t47 -61t20 -75h-134q-8 37 -32.5 58.5t-73.5 21.5q-26 0 -48.5 -9t-40 -27.5t-27.5 -46.5t-10 -67v-20q0 -42 9.5 -72.5t26.5 -50t40 -28.5t50 -9 q39 0 67.5 20.5t38.5 59.5h134q-5 -44 -24.5 -79.5t-51 -60.5t-73.5 -38.5t-91 -13.5zM270 -212q-17 0 -30 1t-22 3q-11 2 -18 4v73q6 -2 14 -3q7 -1 16 -1.5t20 -0.5q27 0 36.5 8.5t9.5 18.5q0 11 -9 19.5t-40 8.5l17 91h76l-7 -46q38 -8 52.5 -31t14.5 -48 q0 -45 -30.5 -71t-99.5 -26z" glyph-name="ccedilla" horiz-adv-x="565" unicode="ç"/>
<glyph d="M300 -12q-54 0 -102.5 16.5t-84.5 50t-57 85t-21 120.5v20q0 66 20 115t55 81.5t81 49t99 16.5q125 0 190 -66t65 -191v-56h-375q1 -35 12 -60.5t29 -41.5t41.5 -23.5t47.5 -7.5q51 0 77 15t37 44h121q-16 -83 -79 -125t-156 -42zM295 434q-23 0 -45.5 -6t-39.5 -19 t-28 -35t-12 -53h247q-1 33 -10.5 55t-26 35t-38.5 18t-47 5zM85 740h150l110 -160h-110z" glyph-name="egrave" horiz-adv-x="580" unicode="è"/>
<glyph d="M300 -12q-54 0 -102.5 16.5t-84.5 50t-57 85t-21 120.5v20q0 66 20 115t55 81.5t81 49t99 16.5q125 0 190 -66t65 -191v-56h-375q1 -35 12 -60.5t29 -41.5t41.5 -23.5t47.5 -7.5q51 0 77 15t37 44h121q-16 -83 -79 -125t-156 -42zM295 434q-23 0 -45.5 -6t-39.5 -19 t-28 -35t-12 -53h247q-1 33 -10.5 55t-26 35t-38.5 18t-47 5zM345 740h150l-150 -160h-110z" glyph-name="eacute" horiz-adv-x="580" unicode="é"/>
<glyph d="M300 -12q-54 0 -102.5 16.5t-84.5 50t-57 85t-21 120.5v20q0 66 20 115t55 81.5t81 49t99 16.5q125 0 190 -66t65 -191v-56h-375q1 -35 12 -60.5t29 -41.5t41.5 -23.5t47.5 -7.5q51 0 77 15t37 44h121q-16 -83 -79 -125t-156 -42zM295 434q-23 0 -45.5 -6t-39.5 -19 t-28 -35t-12 -53h247q-1 33 -10.5 55t-26 35t-38.5 18t-47 5zM225 740h130l110 -160h-110l-65 70l-65 -70h-110z" glyph-name="ecircumflex" horiz-adv-x="580" unicode="ê"/>
<glyph d="M300 -12q-54 0 -102.5 16.5t-84.5 50t-57 85t-21 120.5v20q0 66 20 115t55 81.5t81 49t99 16.5q125 0 190 -66t65 -191v-56h-375q1 -35 12 -60.5t29 -41.5t41.5 -23.5t47.5 -7.5q51 0 77 15t37 44h121q-16 -83 -79 -125t-156 -42zM295 434q-23 0 -45.5 -6t-39.5 -19 t-28 -35t-12 -53h247q-1 33 -10.5 55t-26 35t-38.5 18t-47 5zM184 586q-32 0 -53 21t-21 53t21 53t53 21t53 -21t21 -53t-21 -53t-53 -21zM396 586q-32 0 -53 21t-21 53t21 53t53 21t53 -21t21 -53t-21 -53t-53 -21z" glyph-name="edieresis" horiz-adv-x="580" unicode="ë"/>
<glyph d="M70 530h132v-530h-132v530zM-68 740h150l110 -160h-110z" glyph-name="igrave" horiz-adv-x="272" unicode="ì"/>
<glyph d="M70 530h132v-530h-132v530zM191 740h150l-150 -160h-110z" glyph-name="iacute" horiz-adv-x="272" unicode="í"/>
<glyph d="M70 530h132v-530h-132v530zM72 740h130l110 -160h-110l-65 70l-65 -70h-110z" glyph-name="icircumflex" horiz-adv-x="272" unicode="î"/>
<glyph d="M70 530h132v-530h-132v530zM31 586q-32 0 -53 21t-21 53t21 53t53 21t53 -21t21 -53t-21 -53t-53 -21zM243 586q-32 0 -53 21t-21 53t21 53t53 21t53 -21t21 -53t-21 -53t-53 -21z" glyph-name="idieresis" horiz-adv-x="272" unicode="ï"/>
<glyph d="M300 -12q-51 0 -98.5 16.5t-84.5 49.5t-59.5 82t-22.5 114v20q0 61 22 108t57.5 79t79 48.5t86.5 16.5q70 0 124 -30q-23 39 -54 66.5t-74 48.5l-26 -49l-62 29l24 46q-36 12 -78 24l34 96q25 -7 48.5 -14t44.5 -15l25 46l62 -29l-23 -43q67 -33 113 -75t74.5 -93 t40.5 -111t12 -129v-20q0 -72 -22.5 -125t-59.5 -88t-84.5 -52t-98.5 -17zM300 98q27 0 50.5 9.5t41.5 28.5t28.5 47.5t10.5 66.5v20q0 34 -10.5 60.5t-28.5 44.5t-41.5 27.5t-50.5 9.5t-50.5 -9.5t-41.5 -27.5t-28.5 -44.5t-10.5 -60.5v-20q0 -38 10.5 -66.5t28.5 -47.5 t41.5 -28.5t50.5 -9.5z" glyph-name="eth" horiz-adv-x="605" unicode="ð"/>
<glyph d="M60 530h122v-78q19 36 61.5 63t114.5 27q97 0 144.5 -52t47.5 -150v-340h-132v310q0 60 -24.5 90t-83.5 30q-32 0 -54 -10t-36.5 -26.5t-21 -38t-6.5 -45.5v-310h-132v530zM365 590q-23 0 -39.5 7t-30 15.5t-25.5 15.5t-25 7q-14 0 -23 -6t-15 -14q-7 -9 -12 -20l-60 35 q8 28 23 50q13 19 34 34.5t53 15.5q22 0 39 -7t30.5 -15.5t25.5 -15.5t25 -7t22.5 6t15.5 14q7 9 12 20l60 -35q-8 -28 -23 -50q-13 -19 -34 -34.5t-53 -15.5z" glyph-name="ntilde" horiz-adv-x="605" unicode="ñ"/>
<glyph d="M300 -12q-54 0 -102.5 16.5t-84.5 50.5t-57 85t-21 120v20q0 65 21 114t57 82t84.5 49.5t102.5 16.5t102 -16.5t84.5 -49.5t57.5 -82t21 -114v-20q0 -68 -21 -119t-57.5 -85t-84.5 -51t-102 -17zM300 100q56 0 93.5 40t37.5 120v20q0 73 -37.5 111.5t-93.5 38.5 q-57 0 -94 -38.5t-37 -111.5v-20q0 -81 37 -120.5t94 -39.5zM95 740h150l110 -160h-110z" glyph-name="ograve" horiz-adv-x="600" unicode="ò"/>
<glyph d="M300 -12q-54 0 -102.5 16.5t-84.5 50.5t-57 85t-21 120v20q0 65 21 114t57 82t84.5 49.5t102.5 16.5t102 -16.5t84.5 -49.5t57.5 -82t21 -114v-20q0 -68 -21 -119t-57.5 -85t-84.5 -51t-102 -17zM300 100q56 0 93.5 40t37.5 120v20q0 73 -37.5 111.5t-93.5 38.5 q-57 0 -94 -38.5t-37 -111.5v-20q0 -81 37 -120.5t94 -39.5zM355 740h150l-150 -160h-110z" glyph-name="oacute" horiz-adv-x="600" unicode="ó"/>
<glyph d="M300 -12q-54 0 -102.5 16.5t-84.5 50.5t-57 85t-21 120v20q0 65 21 114t57 82t84.5 49.5t102.5 16.5t102 -16.5t84.5 -49.5t57.5 -82t21 -114v-20q0 -68 -21 -119t-57.5 -85t-84.5 -51t-102 -17zM300 100q56 0 93.5 40t37.5 120v20q0 73 -37.5 111.5t-93.5 38.5 q-57 0 -94 -38.5t-37 -111.5v-20q0 -81 37 -120.5t94 -39.5zM235 740h130l110 -160h-110l-65 70l-65 -70h-110z" glyph-name="ocircumflex" horiz-adv-x="600" unicode="ô"/>
<glyph d="M300 -12q-54 0 -102.5 16.5t-84.5 50.5t-57 85t-21 120v20q0 65 21 114t57 82t84.5 49.5t102.5 16.5t102 -16.5t84.5 -49.5t57.5 -82t21 -114v-20q0 -68 -21 -119t-57.5 -85t-84.5 -51t-102 -17zM300 100q56 0 93.5 40t37.5 120v20q0 73 -37.5 111.5t-93.5 38.5 q-57 0 -94 -38.5t-37 -111.5v-20q0 -81 37 -120.5t94 -39.5zM360 590q-23 0 -39.5 7t-30 15.5t-25.5 15.5t-25 7q-14 0 -23 -6t-15 -14q-7 -9 -12 -20l-60 35q8 28 23 50q13 19 34 34.5t53 15.5q22 0 39 -7t30.5 -15.5t25.5 -15.5t25 -7t22.5 6t15.5 14q7 9 12 20l60 -35 q-8 -28 -23 -50q-13 -19 -34 -34.5t-53 -15.5z" glyph-name="otilde" horiz-adv-x="600" unicode="õ"/>
<glyph d="M300 -12q-54 0 -102.5 16.5t-84.5 50.5t-57 85t-21 120v20q0 65 21 114t57 82t84.5 49.5t102.5 16.5t102 -16.5t84.5 -49.5t57.5 -82t21 -114v-20q0 -68 -21 -119t-57.5 -85t-84.5 -51t-102 -17zM300 100q56 0 93.5 40t37.5 120v20q0 73 -37.5 111.5t-93.5 38.5 q-57 0 -94 -38.5t-37 -111.5v-20q0 -81 37 -120.5t94 -39.5zM194 586q-32 0 -53 21t-21 53t21 53t53 21t53 -21t21 -53t-21 -53t-53 -21zM406 586q-32 0 -53 21t-21 53t21 53t53 21t53 -21t21 -53t-21 -53t-53 -21z" glyph-name="odieresis" horiz-adv-x="600" unicode="ö"/>
<glyph d="M40 422h490v-124h-490v124zM285 68q-35 0 -60 25t-25 60q0 37 25 61t60 24t60 -24t25 -61q0 -35 -25 -60t-60 -25zM285 482q-35 0 -60 25t-25 60q0 37 25 61t60 24t60 -24t25 -61q0 -35 -25 -60t-60 -25z" glyph-name="divide" unicode="÷"/>
<glyph d="M300 -12q-89 0 -155 42l-35 -42l-50 42l36 43q-29 33 -45 79.5t-16 107.5v20q0 65 21 114t57 82t84.5 49.5t102.5 16.5q88 0 154 -42l36 42l50 -42l-36 -43q29 -32 45 -76t16 -101v-20q0 -68 -21 -119t-57.5 -85t-84.5 -51t-102 -17zM300 100q56 0 93.5 40t37.5 120v20 q0 41 -14 74l-193 -231q32 -23 76 -23zM300 430q-57 0 -94 -38.5t-37 -111.5v-20q0 -49 14 -83l193 229q-32 24 -76 24z" glyph-name="oslash" horiz-adv-x="600" unicode="ø"/>
<glyph d="M242 -12q-93 0 -140 52.5t-47 162.5v327h132v-309q0 -60 23.5 -90.5t79.5 -30.5q30 0 51 10t35 26.5t20.5 38.5t6.5 46v309h132v-530h-122v78q-19 -36 -60.5 -63t-110.5 -27zM90 740h150l110 -160h-110z" glyph-name="ugrave" horiz-adv-x="595" unicode="ù"/>
<glyph d="M242 -12q-93 0 -140 52.5t-47 162.5v327h132v-309q0 -60 23.5 -90.5t79.5 -30.5q30 0 51 10t35 26.5t20.5 38.5t6.5 46v309h132v-530h-122v78q-19 -36 -60.5 -63t-110.5 -27zM350 740h150l-150 -160h-110z" glyph-name="uacute" horiz-adv-x="595" unicode="ú"/>
<glyph d="M242 -12q-93 0 -140 52.5t-47 162.5v327h132v-309q0 -60 23.5 -90.5t79.5 -30.5q30 0 51 10t35 26.5t20.5 38.5t6.5 46v309h132v-530h-122v78q-19 -36 -60.5 -63t-110.5 -27zM230 740h130l110 -160h-110l-65 70l-65 -70h-110z" glyph-name="ucircumflex" horiz-adv-x="595" unicode="û"/>
<glyph d="M242 -12q-93 0 -140 52.5t-47 162.5v327h132v-309q0 -60 23.5 -90.5t79.5 -30.5q30 0 51 10t35 26.5t20.5 38.5t6.5 46v309h132v-530h-122v78q-19 -36 -60.5 -63t-110.5 -27zM189 586q-32 0 -53 21t-21 53t21 53t53 21t53 -21t21 -53t-21 -53t-53 -21zM401 586 q-32 0 -53 21t-21 53t21 53t53 21t53 -21t21 -53t-21 -53t-53 -21z" glyph-name="udieresis" horiz-adv-x="595" unicode="ü"/>
<glyph d="M150 -212q-15 0 -30 3v112q15 -3 30 -3q30 0 46.5 22.5t37.5 77.5l-224 530h148l144 -366l132 366h136l-204 -530q-22 -56 -41.5 -96.5t-43.5 -66t-55 -37.5t-76 -12zM351 740h150l-150 -160h-110z" glyph-name="yacute" horiz-adv-x="580" unicode="ý"/>
<glyph d="M60 700h132v-243q26 38 67.5 61.5t95.5 23.5q106 0 165.5 -65.5t59.5 -196.5v-20q0 -137 -60.5 -204.5t-164.5 -67.5q-54 0 -95.5 23.5t-67.5 61.5v-273h-132v900zM324 100q52 0 87 39.5t35 120.5v20q0 75 -34 112.5t-88 37.5q-57 0 -94.5 -32.5t-37.5 -98.5v-60 q0 -70 36.5 -104.5t95.5 -34.5z" glyph-name="thorn" horiz-adv-x="615" unicode="þ"/>
<glyph d="M70 530h132v-530h-132v530z" glyph-name="dotlessi" horiz-adv-x="272" unicode="ı"/>
<glyph d="M22 -212q-11 0 -25 0.5t-25 2.5v112q8 -2 17.5 -2.5t17.5 -0.5q18 0 30 5t19.5 17t10.5 33.5t3 54.5v520h132v-530q0 -63 -8.5 -104t-29.5 -65t-55.5 -33.5t-86.5 -9.5z" glyph-name="uni0237" horiz-adv-x="272" unicode="ȷ"/>
<glyph d="M130 740h130l110 -160h-110l-65 70l-65 -70h-110z" glyph-name="circumflex" horiz-adv-x="390" unicode="ˆ"/>
<glyph d="M100 580q-35 0 -57.5 22.5t-22.5 57.5t22.5 57.5t57.5 22.5t57.5 -22.5t22.5 -57.5t-22.5 -57.5t-57.5 -22.5z" glyph-name="dotaccent" horiz-adv-x="200" unicode="˙"/>
<glyph d="M145 565q-27 0 -49.5 9t-39.5 24.5t-26.5 36.5t-9.5 45t9.5 45t26.5 36.5t39.5 24.5t49.5 9t49.5 -9t39.5 -24.5t26.5 -36.5t9.5 -45t-9.5 -45t-26.5 -36.5t-39.5 -24.5t-49.5 -9zM145 643q17 0 27 10t10 27t-10 27t-27 10t-27 -10t-10 -27t10 -27t27 -10z" glyph-name="ring" horiz-adv-x="290" unicode="˚"/>
<glyph d="M250 590q-23 0 -39.5 7t-30 15.5t-25.5 15.5t-25 7q-14 0 -23 -6t-15 -14q-7 -9 -12 -20l-60 35q8 28 23 50q13 19 34 34.5t53 15.5q22 0 39 -7t30.5 -15.5t25.5 -15.5t25 -7t22.5 6t15.5 14q7 9 12 20l60 -35q-8 -28 -23 -50q-13 -19 -34 -34.5t-53 -15.5z" glyph-name="tilde" horiz-adv-x="380" unicode="˜"/>
<glyph d="M30 220v110l220 185v-138l-125 -100l125 -100v-142z" glyph-name="guilsinglleft" horiz-adv-x="300" unicode="‹"/>
<glyph d="M270 330v-110l-220 -185v138l125 100l-125 100v142z" glyph-name="guilsinglright" horiz-adv-x="300" unicode="›"/>
<glyph d="M260 700h140l-480 -700h-140z" glyph-name="fraction" horiz-adv-x="180" unicode="⁄"/>
<glyph d="M204 449h-194v82l184 249h136v-229h40v-102h-40v-69h-126v69zM204 551v108l-72 -108h72z" glyph-name="uni2074" horiz-adv-x="400" unicode="⁴"/>
<glyph d="M90 -212q-17 0 -30 1t-22 3q-11 2 -18 4v75q6 -2 14 -3q7 -1 16 -1.5t20 -0.5q27 0 35.5 7.5t8.5 17.5q0 11 -8.5 18.5t-40.5 7.5l17 93h80l-7 -46q37 -8 51 -31t14 -48q0 -45 -30.5 -71t-99.5 -26z" glyph-name="uniF407" horiz-adv-x="240" unicode=""/>
<glyph d="M130 900h140l110 -150h-120l-60 60l-60 -60h-120z" glyph-name="uniF408" horiz-adv-x="400" unicode=""/>
<glyph d="M150 730q-28 0 -51.5 8.5t-41 23.5t-27.5 36t-10 47q0 25 10 46.5t27.5 36.5t41 23.5t51.5 8.5t51.5 -8.5t41 -23.5t27.5 -36.5t10 -46.5q0 -26 -10 -47t-27.5 -36t-41 -23.5t-51.5 -8.5zM150 810q17 0 28.5 9t11.5 26t-11.5 26t-28.5 9t-28.5 -9t-11.5 -26t11.5 -26 t28.5 -9z" glyph-name="uniF40C" horiz-adv-x="300" unicode=""/>
<glyph d="M280 750q-26 0 -45 7t-34.5 15.5t-29.5 15.5t-31 7q-14 0 -23 -6t-15 -14q-7 -9 -12 -20l-70 40q8 29 24 52q14 20 37 36.5t59 16.5q26 0 45 -7t34.5 -15.5t29.5 -15.5t31 -7q13 0 22.5 6t15.5 14q7 9 12 20l70 -40q-8 -30 -24 -53q-14 -20 -37.5 -36t-58.5 -16z" glyph-name="uniF40D" horiz-adv-x="420" unicode=""/>
<glyph d="M130 900h160l-150 -150h-120z" glyph-name="uniF6C9" horiz-adv-x="310" unicode=""/>
<glyph d="M100 745q-35 0 -57.5 22.5t-22.5 57.5t22.5 57.5t57.5 22.5t57.5 -22.5t22.5 -57.5t-22.5 -57.5t-57.5 -22.5zM340 745q-35 0 -57.5 22.5t-22.5 57.5t22.5 57.5t57.5 22.5t57.5 -22.5t22.5 -57.5t-22.5 -57.5t-57.5 -22.5z" glyph-name="uniF6CB" horiz-adv-x="440" unicode=""/>
<glyph d="M20 900h160l110 -150h-120z" glyph-name="uniF6CE" horiz-adv-x="310" unicode=""/>
</font>
</defs>
</svg>
